<svg xmlns="http://www.w3.org/2000/svg" width="14" height="14" viewBox="0 0 14 14">
  <rect x="1.1" y="8.65" width="1.9" height="4.1" rx=".35" fill="#B8BEC5"/>
  <rect x="4.15" y="7.05" width="1.9" height="5.7" rx=".35" fill="#B8BEC5"/>
  <rect x="7.2" y="5.45" width="1.9" height="7.3" rx=".35" fill="#B8BEC5"/>
  <rect x="10.25" y="3.25" width="1.95" height="9.5" rx=".35" fill="#B8BEC5"/>
  <path fill="#B8BEC5" d="M1.05 7.55c-.22.12-.31.39-.2.61.12.22.39.31.61.2l1.88-.98 1.22.72a.8.8 0 0 0 .98-.12l2.19-2.1h1.97c.21 0 .41-.09.55-.24l1.88-2-.47-.47a.45.45 0 0 1 .21-.76l1.82-.46c.31-.08.59.2.51.51l-.46 1.82a.45.45 0 0 1-.76.21l-.44-.44-2.11 2.24a.75.75 0 0 1-.55.24H8.1L5.56 8.84a.8.8 0 0 1-.98.1l-1.2-.71-2.33 1.23Z"/>
</svg>
