<svg xmlns="http://www.w3.org/2000/svg" width="14" height="14" viewBox="0 0 14 14" shape-rendering="geometricPrecision">
  <g fill="#B8BEC5">
    <path d="M13.55.45 10.88 1.39 11.55 2.16 8.75 5.58 6.46 5.83 4.53 7.72 3.64 6.86.45 9 .53 9.43.89 9.77 3.49 7.97 4.38 9 6.75 6.69 9.19 6.43 12.09 2.83 12.98 3.51Z"/>
    <path d="M.53 10.88 3.12 9.17V13.47H.53Z"/>
    <path d="M3.94 10.2 6.54 7.89V13.47H3.94Z"/>
    <path d="M7.42 7.46 9.34 7.21 9.93 6.52V13.47H7.42Z"/>
    <path d="M10.82 5.41 12.23 3.7 13.41 4.98V13.47H10.82Z"/>
  </g>
</svg>
