<svg xmlns="http://www.w3.org/2000/svg" width="14" height="14" viewBox="0 0 14 14">
  <g fill="#B8BEC5">
    <path d="M14 0 11.15 1.01 11.86 1.83 8.86 5.49 6.41 5.76 4.35 7.78 3.4 6.86 0 9.15 .08 9.61 .47 9.97 3.24 8.05 4.19 9.15 6.72 6.68 9.33 6.41 12.42 2.56 13.37 3.29Z"/>
    <path d="M.08 11.16 2.85 9.33V13.91L.08 14Z"/>
    <path d="M3.72 10.43 6.49 7.96V14H3.72Z"/>
    <path d="M7.44 7.5 9.49 7.23 10.12 6.5V14H7.44Z"/>
    <path d="M11.07 5.31 12.58 3.48 13.84 4.85V14h-2.77Z"/>
  </g>
</svg>
