<svg xmlns="http://www.w3.org/2000/svg" width="247" height="244" viewBox="0 0 247 244" role="img" aria-label="growth chart icon without border">
  <title>Growth chart icon without border</title>
  <desc>Transparent-background vector icon converted from the supplied image, without the outer border.</desc>
  <g fill="#b8bec5">
    <path d="M211 47 L175 58 L184 67 L146 107 L115 110 L89 132 L77 122 L34 147 L35 152 L40 156 L75 135 L87 147 L119 120 L152 117 L191 75 L203 83 Z"/>
    <path d="M70 149 L35 169 L35 200 L70 199 Z"/>
    <path d="M116 134 L81 161 L81 200 L116 200 Z"/>
    <path d="M162 118 L154 126 L128 129 L128 200 L162 200 Z"/>
    <path d="M193 85 L174 105 L174 200 L209 200 L209 100 Z"/>
  </g>
</svg>
